# xmcd
#
# Track frame offsets: 
#        150
#        24262
#        53001
#        82427
#        105401
#        128654
#        158181
#        182713
#        196962
#        230837
#        244148
#        274796
#        298567
#
# Disc length: 4693 seconds
#
# Revision: 0
# Processed by: cddbd v1.5.2PL0 Copyright (c) Steve Scherf et al.
# Submitted via: ExactAudioCopyFreeDBPlugin 1.0
#
DISCID=b312530d
DTITLE=Stiller Has - Alterswild
DYEAR=2014
DGENRE=Blues
TTITLE0=Buechdruck
TTITLE1=St. Veit
TTITLE2=Märli
TTITLE3=Chätschgummi
TTITLE4=Böses Alter
TTITLE5=So verdorbe
TTITLE6=Chyne Tod
TTITLE7=Toti Sigarette
TTITLE8=D'Helfti
TTITLE9=Guarda che luna
TTITLE10=Chlyni Wält
TTITLE11=Walliselle
TTITLE12=Medley (Moudi, Gruusig, Znüni näh)
EXTD=
EXTT0=
EXTT1=
EXTT2=
EXTT3=
EXTT4=
EXTT5=
EXTT6=
EXTT7=
EXTT8=
EXTT9=
EXTT10=
EXTT11=
EXTT12=
PLAYORDER=
